<?xml version="1.0" encoding="UTF-8" standalone="no"?>
<svg
   xmlns:dc="http://purl.org/dc/elements/1.1/"
   xmlns:cc="http://creativecommons.org/ns#"
   xmlns:rdf="http://www.w3.org/1999/02/22-rdf-syntax-ns#"
   xmlns:svg="http://www.w3.org/2000/svg"
   xmlns="http://www.w3.org/2000/svg"
   id="svg821"
   version="1.1"
   viewBox="0 0 106.40296 63.493889"
   height="63.493889mm"
   width="106.40296mm">
  <defs
     id="defs815" />
  <metadata
     id="metadata818">
    <rdf:RDF>
      <cc:Work
         rdf:about="">
        <dc:format>image/svg+xml</dc:format>
        <dc:type
           rdf:resource="http://purl.org/dc/dcmitype/StillImage" />
        <dc:title></dc:title>
      </cc:Work>
    </rdf:RDF>
  </metadata>
  <g
     transform="translate(-59.599653,-92.360937)"
     id="layer1">
    <path
       id="path1368"
       transform="matrix(0.26458333,0,0,0.26458333,59.599653,92.360937)"
       d="M 225.63477 0.01953125 C 128.15651 0.01953125 49.134766 49.939772 49.134766 111.51953 C 49.144766 129.23168 49.134743 111.51753 54.220703 165.53125 C -5.2556816 207.81826 0.074680006 239.18193 0.1875 239.80664 C 2.21187 236.63964 51.116046 174.8876 178.59961 218.86523 C 193.91014 221.58233 209.73173 222.97973 225.63477 223.01953 C 323.11296 223.01953 402.13477 173.09926 402.13477 111.51953 C 402.13477 49.939772 323.11296 0.01953125 225.63477 0.01953125 z M 0.1875 239.80664 C 0.085760006 239.96581 0.063862512 240.02313 0.1953125 239.86523 C 0.1953125 239.86523 0.1885 239.81294 0.1875 239.80664 z M 308.38867 25.734375 L 322.39648 44.072266 L 255.36523 115.1582 L 255.36523 195.69336 L 143.82031 195.69336 L 143.82031 132.31836 L 110.67578 93.056641 L 127.68164 78.060547 L 143.82031 97.177734 L 143.82031 74.615234 L 255.36523 74.615234 L 255.36523 81.964844 L 308.38867 25.734375 z M 157.76367 89.75 L 157.76367 113.69336 L 189.73438 151.56445 L 241.42383 96.75 L 241.42383 89.75 L 157.76367 89.75 z M 241.42383 129.94336 L 204.51953 169.07812 L 204.92188 169.55273 L 199.88477 173.99609 L 196.9707 177.08398 L 196.73242 176.77344 L 192.43945 180.56055 L 241.42383 180.56055 L 241.42383 129.94336 z M 157.76367 148.83398 L 157.76367 180.56055 L 184.54492 180.56055 L 157.76367 148.83398 z "
       style="fill:#249c51;fill-opacity:1;stroke:#ffff00;stroke-width:0.03779528;stroke-linecap:round;stroke-linejoin:round;stroke-miterlimit:4;stroke-dasharray:none;stroke-opacity:1;opacity:1" />
    <flowRoot
       style="font-style:normal;font-weight:normal;font-size:40px;line-height:1.25;font-family:sans-serif;letter-spacing:0px;word-spacing:0px;fill:#000000;fill-opacity:1;stroke:none"
       id="flowRoot1373"
       xml:space="preserve"><flowRegion
         id="flowRegion1375"><rect
           y="283.51968"
           x="-690"
           height="108"
           width="219"
           id="rect1377" /></flowRegion><flowPara
         id="flowPara1379" /></flowRoot>  </g>
</svg>
