<?xml version="1.0" encoding="UTF-8" standalone="no"?>
<svg
   xmlns:dc="http://purl.org/dc/elements/1.1/"
   xmlns:cc="http://creativecommons.org/ns#"
   xmlns:rdf="http://www.w3.org/1999/02/22-rdf-syntax-ns#"
   xmlns:svg="http://www.w3.org/2000/svg"
   xmlns="http://www.w3.org/2000/svg"
   width="106.40296mm"
   height="63.493889mm"
   viewBox="0 0 106.40296 63.493889"
   version="1.1"
   id="svg821">
  <defs
     id="defs815" />
  <metadata
     id="metadata818">
    <rdf:RDF>
      <cc:Work
         rdf:about="">
        <dc:format>image/svg+xml</dc:format>
        <dc:type
           rdf:resource="http://purl.org/dc/dcmitype/StillImage" />
        <dc:title></dc:title>
      </cc:Work>
    </rdf:RDF>
  </metadata>
  <g
     id="layer1"
     transform="translate(-59.599653,-92.360937)">
    <path
       style="opacity:1;fill:#249c51;fill-opacity:1;stroke:#ffff00;stroke-width:0.03779528;stroke-linecap:round;stroke-linejoin:round;stroke-miterlimit:4;stroke-dasharray:none;stroke-opacity:1"
       d="m 225.63477,0.01953125 c -97.47826,0 -176.500004,49.92024075 -176.500004,111.49999875 0.01,17.71215 -2.3e-5,-0.002 5.085937,54.01172 -59.4763846,42.28701 -54.14602299,73.65068 -54.033203,74.27539 2.02437,-3.167 50.928546,-64.91904 178.41211,-20.94141 15.31053,2.7171 31.13212,4.1145 47.03516,4.1543 97.47819,0 176.5,-49.92027 176.5,-111.5 0,-61.579758 -79.02181,-111.49999875 -176.5,-111.49999875 z M 0.1875,239.80664 c -0.10173999,0.15917 -0.12363749,0.21649 0.007813,0.0586 0,0 -0.006812,-0.0523 -0.007813,-0.0586 z M 308.38867,25.734375 322.39648,44.072266 255.36523,115.1582 v 80.53516 H 143.82031 v -63.375 l -33.14453,-39.261719 17.00586,-14.996094 16.13867,19.117187 v -22.5625 h 111.54492 v 7.34961 z M 157.76367,89.75 v 23.94336 L 189.73438,151.56445 241.42383,96.75 v -7 z m 83.66016,40.19336 c -15.1928,16.44402 -37.96604,39.50011 -48.98438,50.61719 h 48.98438 z m -83.66016,18.89062 v 31.72657 h 26.78125 z"
       transform="matrix(0.26458333,0,0,0.26458333,59.599653,92.360937)"
       id="path1368" />
    <flowRoot
       xml:space="preserve"
       id="flowRoot1373"
       style="font-style:normal;font-weight:normal;font-size:40px;line-height:1.25;font-family:sans-serif;letter-spacing:0px;word-spacing:0px;fill:#000000;fill-opacity:1;stroke:none"><flowRegion
         id="flowRegion1375"><rect
           id="rect1377"
           width="219"
           height="108"
           x="-690"
           y="283.51968" /></flowRegion><flowPara
         id="flowPara1379" /></flowRoot>  </g>
</svg>
